<?xml version="1.0" encoding="UTF-8"?>
<svg width="180" height="180" viewBox="0 0 180 180" fill="none" xmlns="http://www.w3.org/2000/svg">
  <!-- Фон для Apple Touch Icon -->
  <rect width="180" height="180" rx="40" fill="#f8f9fa" />

  <!-- Градиенты для цветов немецкого флага -->
  <linearGradient id="blackGradient" x1="0%" y1="0%" x2="100%" y2="0%">
    <stop offset="0%" stop-color="#000000" />
    <stop offset="100%" stop-color="#333333" />
  </linearGradient>

  <linearGradient id="redGradient" x1="0%" y1="0%" x2="100%" y2="0%">
    <stop offset="0%" stop-color="#DD0000" />
    <stop offset="100%" stop-color="#FF4444" />
  </linearGradient>

  <linearGradient id="goldGradient" x1="0%" y1="0%" x2="100%" y2="0%">
    <stop offset="0%" stop-color="#FFCC00" />
    <stop offset="100%" stop-color="#FFD700" />
  </linearGradient>

  <!-- Внешний контур буквы D (центрированный) -->
  <path d="M45 50 L90 50 C115 50, 135 75, 135 90 C135 115, 115 130, 90 130 L45 130 L45 50 Z" fill="none" stroke="#333" stroke-width="1" />

  <!-- Верхняя часть D - черная полоса (ровно 1/3) -->
  <path d="M45 50 L90 50 C115 50, 135 75, 135 76.66 L45 76.66 L45 50 Z" fill="url(#blackGradient)" />

  <!-- Средняя часть D - красная полоса (ровно 1/3) -->
  <path d="M45 76.66 L135 76.66 L135 103.33 L45 103.33 L45 76.66 Z" fill="url(#redGradient)" />

  <!-- Нижняя часть D - золотая полоса (ровно 1/3) -->
  <path d="M45 103.33 L135 103.33 C135 115, 115 130, 90 130 L45 130 L45 103.33 Z" fill="url(#goldGradient)" />

  <!-- Округлые элементы для более современного вида -->
  <path d="M90 50 C115 50, 135 75, 135 76.66" fill="none" stroke="#fff" stroke-width="0.5" opacity="0.3" />
  <path d="M135 103.33 C135 115, 115 130, 90 130" fill="none" stroke="#222" stroke-width="0.5" opacity="0.3" />

  <!-- Небольшая тень внутри для объема -->
  <path d="M60 50 C105 50, 135 65, 135 76.66" fill="none" stroke="#000" stroke-width="1" opacity="0.05" />
  <path d="M60 130 C105 130, 135 115, 135 103.33" fill="none" stroke="#fff" stroke-width="1" opacity="0.05" />
</svg>
