<?xml version="1.0" encoding="UTF-8"?>
<svg width="32" height="32" viewBox="0 0 32 32" fill="none" xmlns="http://www.w3.org/2000/svg">
  <!-- Градиенты для цветов немецкого флага -->
  <linearGradient id="blackGradient" x1="0%" y1="0%" x2="100%" y2="0%">
    <stop offset="0%" stop-color="#000000" />
    <stop offset="100%" stop-color="#333333" />
  </linearGradient>

  <linearGradient id="redGradient" x1="0%" y1="0%" x2="100%" y2="0%">
    <stop offset="0%" stop-color="#DD0000" />
    <stop offset="100%" stop-color="#FF4444" />
  </linearGradient>

  <linearGradient id="goldGradient" x1="0%" y1="0%" x2="100%" y2="0%">
    <stop offset="0%" stop-color="#FFCC00" />
    <stop offset="100%" stop-color="#FFD700" />
  </linearGradient>

  <!-- Внешний контур буквы D -->
  <path d="M6 5 L16 5 C22 5, 26 10, 26 16 C26 22, 22 27, 16 27 L6 27 L6 5 Z" fill="none" stroke="#333" stroke-width="0.5" />

  <!-- Верхняя часть D - черная полоса (ровно 1/3) -->
  <path d="M6 5 L16 5 C22 5, 26 10, 26 12.33 L6 12.33 L6 5 Z" fill="url(#blackGradient)" />

  <!-- Средняя часть D - красная полоса (ровно 1/3) -->
  <path d="M6 12.33 L26 12.33 L26 19.67 L6 19.67 L6 12.33 Z" fill="url(#redGradient)" />

  <!-- Нижняя часть D - золотая полоса (ровно 1/3) -->
  <path d="M6 19.67 L26 19.67 C26 22, 22 27, 16 27 L6 27 L6 19.67 Z" fill="url(#goldGradient)" />
</svg>
