<?xml version="1.0" encoding="UTF-8"?>
<svg width="120" height="120" viewBox="0 0 120 120" fill="none" xmlns="http://www.w3.org/2000/svg">
  <!-- Градиенты для цветов немецкого флага -->
  <linearGradient id="blackGradient" x1="0%" y1="0%" x2="100%" y2="0%">
    <stop offset="0%" stop-color="#000000" />
    <stop offset="100%" stop-color="#333333" />
  </linearGradient>

  <linearGradient id="redGradient" x1="0%" y1="0%" x2="100%" y2="0%">
    <stop offset="0%" stop-color="#DD0000" />
    <stop offset="100%" stop-color="#FF4444" />
  </linearGradient>

  <linearGradient id="goldGradient" x1="0%" y1="0%" x2="100%" y2="0%">
    <stop offset="0%" stop-color="#FFCC00" />
    <stop offset="100%" stop-color="#FFD700" />
  </linearGradient>

  <!-- Внешний контур буквы D -->
  <path d="M25 20 L60 20 C80 20, 95 40, 95 60 C95 80, 80 100, 60 100 L25 100 L25 20 Z" fill="none" stroke="#333" stroke-width="1" />

  <!-- Верхняя часть D - черная полоса (ровно 1/3) -->
  <path d="M25 20 L60 20 C80 20, 95 40, 95 46.66 L25 46.66 L25 20 Z" fill="url(#blackGradient)" />

  <!-- Средняя часть D - красная полоса (ровно 1/3) -->
  <path d="M25 46.66 L95 46.66 L95 73.33 L25 73.33 L25 46.66 Z" fill="url(#redGradient)" />

  <!-- Нижняя часть D - золотая полоса (ровно 1/3) -->
  <path d="M25 73.33 L95 73.33 C95 80, 80 100, 60 100 L25 100 L25 73.33 Z" fill="url(#goldGradient)" />

  <!-- Округлые элементы для более современного вида -->
  <path d="M60 20 C80 20, 95 40, 95 46.66" fill="none" stroke="#fff" stroke-width="0.5" opacity="0.3" />
  <path d="M95 73.33 C95 80, 80 100, 60 100" fill="none" stroke="#222" stroke-width="0.5" opacity="0.3" />

  <!-- Небольшая тень внутри для объема -->
  <path d="M40 20 C75 20, 95 35, 95 46.66" fill="none" stroke="#000" stroke-width="1" opacity="0.05" />
  <path d="M40 100 C75 100, 95 85, 95 73.33" fill="none" stroke="#fff" stroke-width="1" opacity="0.05" />
</svg>
